<svg height="512pt" viewBox="-3 0 512 512.00002" width="512pt" xmlns="http://www.w3.org/2000/svg"><g fill="#ccc"><path d="m412.707031 333.582031h-263.328125c-3.777344 0-7.019531-2.695312-7.707031-6.410156l-41.820313-225.699219c-.421874-2.292968.191407-4.652344 1.679688-6.441406 1.492188-1.789062 3.699219-2.824219 6.027344-2.824219h369.714844c2.328124 0 4.535156 1.035157 6.023437 2.824219s2.105469 4.148438 1.679687 6.441406l-37.675781 203.335938c-3.085937 16.671875-17.636719 28.773437-34.59375 28.773437zm-256.8125-15.671875h256.8125c9.402344 0 17.472657-6.710937 19.183594-15.957031l35.957031-194.074219h-350.867187zm0 0"/><path d="m382.886719 333.582031h-180.945313c-3.976562 0-7.320312-2.976562-7.78125-6.921875l-26.453125-225.703125c-.257812-2.222656.441407-4.449219 1.929688-6.121093 1.488281-1.671876 3.617187-2.628907 5.855469-2.628907h233.847656c2.238281 0 4.371094.957031 5.855468 2.628907 1.488282 1.671874 2.191407 3.898437 1.929688 6.121093l-26.449219 225.703125c-.464843 3.945313-3.8125 6.921875-7.789062 6.921875zm-173.972657-15.671875h167l24.617188-210.03125h-216.230469zm0 0"/><path d="m322.292969 333.582031h-59.757813c-4.207031 0-7.667968-3.324219-7.828125-7.53125l-8.734375-225.703125c-.082031-2.128906.707032-4.203125 2.183594-5.738281s3.515625-2.402344 5.644531-2.402344h77.230469c2.128906 0 4.167969.867188 5.648438 2.402344 1.476562 1.535156 2.261718 3.609375 2.179687 5.738281l-8.734375 225.703125c-.164062 4.207031-3.621094 7.53125-7.832031 7.53125zm-52.214844-15.671875h44.675781l8.128906-210.03125h-60.933593zm0 0"/></g><path d="m113.128906 110.488281h379.4375c7.457032 0 13.503906-6.046875 13.503906-13.503906 0-7.460937-6.046874-13.507813-13.503906-13.507813h-384.433594" fill="#f7526e"/><path d="m456.363281 220.730469h-327.894531c-4.328125 0-7.835938-3.507813-7.835938-7.835938s3.507813-7.835937 7.835938-7.835937h327.894531c4.328125 0 7.835938 3.507812 7.835938 7.835937s-3.507813 7.835938-7.835938 7.835938zm0 0" fill="#ccc"/><path d="m408.640625 429.53125h-213.292969c-33.863281 0-62.921875-24.171875-69.09375-57.46875l-58.5-315.753906c-1.558594-8.40625-8.898437-14.511719-17.449218-14.511719h-29.40625c-11.542969 0-20.898438-9.355469-20.898438-20.898437 0-11.539063 9.355469-20.89453175 20.898438-20.89453175h29.40625c28.695312 0 53.316406 20.47656275 58.542968 48.69140575l58.503906 315.753907c2.5 13.492187 14.273438 23.285156 27.996094 23.285156h213.292969c11.542969 0 20.898437 9.355469 20.898437 20.898437 0 11.539063-9.355468 20.898438-20.898437 20.898438zm0 0" fill="#e6e6e6"/><path d="m145.320312 372.0625-58.503906-315.753906c-1.558594-8.40625-8.894531-14.511719-17.449218-14.511719h-19.0625c8.550781 0 15.890624 6.105469 17.449218 14.511719l58.5 315.753906c6.171875 33.296875 35.226563 57.46875 69.09375 57.46875h19.0625c-33.863281 0-62.921875-24.171875-69.089844-57.46875zm0 0" fill="#ccc"/><path d="m110.257812 56.308594h-42.507812c-1.558594-8.410156-8.890625-14.511719-17.4375-14.511719h-29.414062c-11.535157 0-20.898438-9.351563-20.898438-20.898437 0-11.535157 9.363281-20.898438 20.898438-20.898438h29.414062c28.691406 0 53.308594 20.480469 58.535156 48.691406zm0 0" fill="#f7526e"/><path d="m19.0625 20.898438c0-11.539063 9.355469-20.89453175 20.898438-20.89453175h-19.0625c-11.542969 0-20.898438 9.35546875-20.898438 20.89453175 0 11.542968 9.355469 20.898437 20.898438 20.898437h19.0625c-11.542969 0-20.898438-9.355469-20.898438-20.898437zm0 0" fill="#d1244a"/><path d="m236.726562 481.105469c0 17.0625-13.832031 30.894531-30.898437 30.894531-17.0625 0-30.894531-13.832031-30.894531-30.894531s13.832031-30.894531 30.894531-30.894531c17.066406 0 30.898437 13.832031 30.898437 30.894531zm0 0" fill="#2e5968"/><path d="m399.058594 481.105469c0 17.0625-13.832032 30.894531-30.898438 30.894531-17.0625 0-30.894531-13.832031-30.894531-30.894531s13.832031-30.894531 30.894531-30.894531c17.066406 0 30.898438 13.832031 30.898438 30.894531zm0 0" fill="#2e5968"/><path d="m368.164062 488.9375c-3.285156 0-6.261718-2.105469-7.378906-5.195312-1.125-3.117188-.089844-6.746094 2.523438-8.792969 5.511718-4.3125 13.820312.539062 12.574218 7.496093-.667968 3.707032-3.945312 6.492188-7.71875 6.492188zm0 0" fill="#1a414c"/><path d="m205.828125 488.9375c-6.933594 0-10.382813-8.691406-5.425781-13.480469 5.183594-5.011719 14.113281-.539062 13.203125 6.609375-.496094 3.875-3.855469 6.871094-7.777344 6.871094zm0 0" fill="#1a414c"/></svg>